<?xml version="1.0" encoding="UTF-8" standalone="no"?>
<svg
   version="1.1"
   width="4818.8975pt"
   height="1417.3228pt"
   id="svg25"
   viewBox="0 0 4818.8975 1417.3228"
   sodipodi:docname="4.LOGO-HORIZONTAL-MONOCROMATICA-NEGATIVO-CDR.cdr"
   inkscape:export-filename="..\Documents\www\landing-avisos\src\assets\logo.svg"
   inkscape:export-xdpi="96"
   inkscape:export-ydpi="96"
   xmlns:inkscape="http://www.inkscape.org/namespaces/inkscape"
   xmlns:sodipodi="http://sodipodi.sourceforge.net/DTD/sodipodi-0.dtd"
   xmlns="http://www.w3.org/2000/svg"
   xmlns:svg="http://www.w3.org/2000/svg">
  <defs
     id="defs29" />
  <sodipodi:namedview
     id="namedview27"
     pagecolor="#ffffff"
     bordercolor="#000000"
     borderopacity="0.25"
     inkscape:showpageshadow="2"
     inkscape:pageopacity="0.0"
     inkscape:pagecheckerboard="0"
     inkscape:deskcolor="#d1d1d1"
     showgrid="false"
     inkscape:document-units="pt" />
  <path
     d="m 1216.8118,687.1798 c 0.3184,7.12 0.8751,-7.1438 0,0 z"
     style="fill:#ffffff;fill-rule:evenodd"
     id="path2" />
  <path
     d="m 741.1056,961.3736 c -139.3531,0 -252.7162,-113.3682 -252.7162,-252.7209 0,-139.3531 113.3631,-252.7213 252.7162,-252.7213 139.352,0 252.7199,113.3682 252.7199,252.7213 0,139.3527 -113.3679,252.7209 -252.7199,252.7209 z m 2.465,-728.9184 h -3.8504 c -261.9486,0.751 -474.8273,214.0722 -474.8273,476.1975 0,262.5841 213.6285,476.2149 476.2127,476.2149 242.0745,0 442.5437,-181.5604 472.3802,-415.6571 0.4773,-2.9988 0.8185,-6.0453 1.0479,-9.1194 1.8268,-16.9042 -0.2571,-52.2296 2.2781,-72.9112 13.3484,-126.8848 120.8341,-226.1307 251.1942,-226.1307 131.932,0 240.5133,101.6382 251.7043,230.7166 h 0.1892 c 0.1958,5.7148 0.9377,50.7265 1.2563,70.3551 0.072,84.4066 0.2882,294.2435 0.6282,297.4231 -0.4237,3.9542 -0.6582,7.97 -0.6582,12.0395 0,61.5271 50.0541,111.5764 111.5765,111.5764 61.5271,0 111.5812,-50.0493 111.5812,-111.5764 0,-4.0695 -0.2341,-8.0853 -0.6593,-12.0395 0.4252,-3.9582 0.6593,-327.9454 0.6593,-332.0102 0,-1.7341 -0.054,-3.4504 -0.1326,-5.1616 0.079,-1.7112 0.1326,-3.4314 0.1326,-5.1616 0,-4.0683 -0.2341,-8.0853 -0.6593,-12.0435 0.4252,-3.9581 0.6593,-7.97 0.6593,-12.0434 0,-6.8606 -0.6542,-13.5656 -1.8442,-20.0937 -20.7392,-243.5825 -225.5737,-435.4748 -474.4333,-435.4748 -144.3505,0 -273.8795,64.574 -361.2675,166.3413 C 1019.8056,299.7709 889.3354,233.1987 743.5706,232.4552 Z"
     style="fill:#ff0000;fill-rule:evenodd"
     id="path4" />
  <g
     id="Layer1000"
     style="fill:#ffffff">
    <path
       d="m 2448.1182,634.076 v -1.7238 c 0,-56.8483 -41.3422,-105.0795 -99.054,-105.0795 -59.4286,0 -97.3279,47.3736 -97.3279,103.358 v 1.7215 c 0,56.8471 41.3434,105.0835 99.0505,105.0835 59.4345,0 97.3314,-47.3689 97.3314,-103.3597 z m 1635.6025,0 c 0,144.7054 103.3597,242.0305 249.789,242.0305 93.0223,0 157.6235,-37.8942 202.4098,-94.7425 l -90.4396,-74.9371 c -33.5878,32.7286 -64.5966,47.3788 -103.3597,47.3788 -50.8142,0 -87.852,-25.8436 -100.7716,-76.6637 h 311.7985 c 0.6768,-8.7486 0.8248,-18.0212 0.8576,-26.587 v -8.0438 c -0.3763,-136.5147 -74.4811,-253.9145 -235.14,-253.9145 -137.8086,0 -235.144,107.6661 -235.144,243.7555 z m 316.9681,-40.487 H 4238.762 c 8.6105,-50.8153 37.8993,-84.4066 80.965,-84.4066 44.7911,0 74.9375,32.7302 80.9618,84.4066 z M 3591.0617,398.9326 h 163.6518 v 65.4639 c 30.146,-38.7632 73.2121,-75.7998 139.5336,-75.7998 99.0564,0 158.4862,65.4627 158.4862,171.4046 V 864.9119 H 3889.0768 V 612.542 c 0,-50.8153 -26.7012,-78.3788 -65.4592,-78.3788 -39.6192,0 -68.9041,27.5635 -68.9041,78.3788 v 252.3699 h -163.6518 z m -203.2638,0 h 163.6517 v 465.9793 h -163.6517 z m -3.4453,-162.7941 h 170.5423 v 120.5868 h -170.5423 z m -220.4911,628.7734 h 163.6506 v -628.775 h -163.6506 z m -521.953,-465.9793 h 163.653 v 65.4639 c 30.1464,-38.7632 73.2121,-75.7998 139.5336,-75.7998 99.0556,0 158.4815,65.4627 158.4815,171.4046 V 864.9119 H 2939.9248 V 612.542 c 0,-50.8153 -26.7008,-78.3788 -65.4588,-78.3788 -39.6208,0 -68.9045,27.5635 -68.9045,78.3788 v 252.3699 h -163.653 z m -549.52,235.1434 v -1.7238 c 0,-132.643 108.5273,-243.7555 258.3983,-243.7555 149.0103,0 256.6803,109.3911 256.6803,242.034 v 1.7215 c 0,132.6469 -108.5288,243.7543 -258.4029,243.7543 -149.0072,0 -256.6757,-109.3812 -256.6757,-242.0305 z"
       style="fill:#ffffff;fill-rule:evenodd"
       id="path6" />
    <path
       d="m 2584.9199,1027.1042 h -58.8217 v -15.7232 c 47.1544,0 87.1587,0 134.3068,0 v 15.7232 h -58.8154 v 150.9801 h -16.6697 z"
       style="fill:#ffffff;fill-rule:evenodd"
       id="path8" />
    <path
       d="m 2893.979,1178.0843 h -119.5465 c 0,-55.4841 0,-111.2078 0,-166.7033 h 117.4064 v 15.7232 h -100.7367 v 59.7719 h 96.207 v 15.4799 h -96.207 v 60.0152 h 102.8768 z"
       style="fill:#ffffff;fill-rule:evenodd"
       id="path10" />
    <path
       d="m 3037.1798,1011.381 v 150.9902 h 92.6338 v 15.7131 H 3020.5101 V 1011.381 Z"
       style="fill:#ffffff;fill-rule:evenodd"
       id="path12" />
    <path
       d="m 3375.8912,1178.0843 h -119.5515 c 0,-55.4841 0,-111.2078 0,-166.7033 h 117.4064 v 15.7232 h -100.7317 v 59.7719 h 96.2031 v 15.4799 h -96.2031 v 60.0152 h 102.8768 z"
       style="fill:#ffffff;fill-rule:evenodd"
       id="path14" />
    <path
       d="m 3630.7751,1155.4619 c -16.9092,16.9092 -38.3431,25.2428 -60.7274,25.2428 -57.6306,0 -86.4453,-38.5763 -86.6797,-85.0135 -0.2395,-45.4856 28.8109,-86.6898 86.6797,-86.6898 22.1498,0 44.5303,7.8597 59.0599,25.0071 l -10.2393,10.243 c -13.5742,-13.3385 -30.9598,-20.0084 -48.8206,-20.0084 -46.436,0 -70.0138,34.2948 -70.0138,71.2099 0,39.0539 23.5778,69.7705 70.0138,69.7705 17.8608,0 36.6706,-7.1388 50.0054,-20.4811 z"
       style="fill:#ffffff;fill-rule:evenodd"
       id="path16" />
    <path
       d="m 3798.1467,1165.4617 c 45.4857,0 67.3922,-34.5292 67.6267,-70.2532 0,-37.3815 -22.141,-70.7271 -67.6267,-70.9654 -44.7773,0 -68.3476,31.6782 -67.8737,70.9654 0.4815,36.4411 22.3843,70.2532 67.8737,70.2532 z m 84.3002,-70.2532 c -0.2383,43.5799 -27.8644,85.9776 -84.3002,85.9776 -56.6803,0 -84.5446,-42.3977 -84.5446,-86.2158 0,-46.9099 30.4784,-86.4415 84.5446,-86.4415 56.4358,0.2382 84.5346,42.1507 84.3002,86.6797 z"
       style="fill:#ffffff;fill-rule:evenodd"
       id="path18" />
    <path
       d="m 4103.6377,1035.9104 -62.1553,91.4489 h -4.7642 l -62.3936,-92.6337 v 143.3587 h -16.6697 V 1011.381 c 7.6202,0 12.8608,0 20.4823,0 l 60.9606,91.9304 60.2534,-91.9304 h 20.9512 v 166.7033 h -16.6647 z"
       style="fill:#ffffff;fill-rule:evenodd"
       id="path20" />
  </g>
  <path
     d="M 0,0 V 1417.3228 H 4818.8976 V 0 Z"
     style="fill:none"
     id="path23" />
</svg>
